Coordinates
version=1
nRows=17
nColumns=36
inDegrees=yes

Units are S.I. units (second, meters, Newtons, ...)
If the header above contains a line with 'inDegrees', this indicates whether rotational values are in degrees (yes) or radians (no).

endheader
time	pelvis_tilt	pelvis_list	pelvis_rotation	pelvis_tx	pelvis_ty	pelvis_tz	hip_flexion_r	hip_adduction_r	hip_rotation_r	knee_angle_r	knee_angle_r_beta	ankle_angle_r	subtalar_angle_r	mtp_angle_r	hip_flexion_l	hip_adduction_l	hip_rotation_l	knee_angle_l	knee_angle_l_beta	ankle_angle_l	subtalar_angle_l	mtp_angle_l	lumbar_extension	lumbar_bending	lumbar_rotation	arm_flex_r	arm_add_r	arm_rot_r	elbow_flex_r	pro_sup_r	arm_flex_l	arm_add_l	arm_rot_l	elbow_flex_l	pro_sup_l
      0.00000000	     -3.22920064	     -1.62846136	      6.86799919	     -0.18597285	      0.96999998	     -0.09590124	      3.64387422	     -0.41224144	     -1.29129763	      2.44066550	      0.04259765	      7.82841619	     -3.63093903	     -6.81517199	      1.31289344	     -5.28249477	     -0.66709816	      2.52818300	      0.04412512	     12.15693615	     -1.66043279	     -6.81517199	     10.22212886	     -1.04081230	     -8.44849907	     33.79876102	      1.20573691	     51.86334925	    110.39495916	     76.78655883	     41.53646771	     -2.63502459	     64.51981023	    122.87327671	     76.76813282
      0.01666670	     -4.24329496	     -1.87280708	      5.24786055	     -0.18493478	      0.96745866	     -0.09613495	      5.28541075	     -0.17653700	     -0.32922251	      2.83989981	      0.04956560	      7.96011944	     -3.35124027	     -7.02677405	      2.32931376	     -5.52852360	     -3.12180210	      2.46077208	      0.04294857	     12.71654704	     -1.13933858	     -7.02677405	     10.72250521	     -0.22755493	     -6.90692565	     37.09756039	     -2.36961622	     62.56764362	    118.13412444	     89.86675108	     41.74058645	     -2.66274610	     60.73527574	    125.94860985	     94.10999766
      0.03333330	     -5.03369174	     -2.04506700	      4.90581056	     -0.18532168	      0.96733331	     -0.09663569	      6.31414815	     -0.08345766	      0.34933602	      3.10121230	      0.05412637	      7.48149616	     -3.20689121	     -7.17599719	      3.40007047	     -5.67321799	     -4.93774166	      2.46704104	      0.04305799	     12.13384727	     -0.93954124	     -7.17599719	     11.86003152	     -0.20102063	     -7.69985705	     37.11951641	     -1.03066980	     63.40073692	    119.08900628	     94.17511220	     41.08993064	     -3.27246572	     59.76831450	    125.78262411	    101.26366487
      0.05000000	     -5.05670237	     -2.05090249	      4.83092867	     -0.18089303	      0.96735822	     -0.09375962	      6.45088063	     -0.08624225	      0.12153058	      3.23210615	      0.05641089	      7.26157175	     -2.98764425	     -7.17725371	      3.59548690	     -5.73555948	     -5.77959008	      2.76744854	      0.04830109	     12.07728595	     -1.17339885	     -7.17725371	     12.05501085	     -0.52543736	     -7.88998772	     36.73336611	      0.06918197	     63.64746943	    119.28597102	     94.21176850	     41.18159447	     -3.37149319	     59.76680848	    125.50013914	    101.29135665
      0.06666670	     -5.72676621	     -2.06666026	      4.61508362	     -0.18158687	      0.96643479	     -0.09401594	      7.44925529	     -0.02213277	     -0.17596099	      3.75066206	      0.06546140	      7.64668473	     -2.22888137	     -7.22052253	      4.59803768	     -5.78160845	     -6.53395694	      3.46122178	      0.06040972	     12.23228906	     -0.67018799	     -7.22052253	     13.17517589	     -0.69184098	     -8.22489460	     36.43944365	      1.02922480	     63.53646944	    118.84533784	     92.19365277	     40.96453839	     -3.57149228	     59.97110500	    125.50603121	     99.37187286
      0.08333330	     -5.92656909	     -2.07894846	      4.56219887	     -0.18155524	      0.96625113	     -0.09420247	      7.77299626	      0.04739378	     -0.60765473	      3.98091423	      0.06948006	      7.76461595	     -1.68491474	     -7.29204380	      5.02926723	     -5.88644129	     -7.34583720	      4.07659099	      0.07114994	     12.76624352	      0.47471957	     -7.29204380	     13.55234969	     -0.62907239	     -8.46457328	     36.50798483	      1.51536029	     63.50011609	    118.10649487	     93.23772334	     40.80072399	     -3.54555103	     59.65651226	    126.01727368	    101.55437430
      0.10000000	     -6.31961994	     -2.10460464	      4.59164715	     -0.18152545	      0.96580966	     -0.09448006	      8.24632506	      0.12488677	     -0.81133892	      4.11204087	      0.07176865	      7.60291133	     -1.83324233	     -7.31965297	      5.69753408	     -5.96104406	     -7.44405797	      4.67337929	      0.08156586	     12.86035516	      0.40610376	     -7.31965297	     13.96676140	     -0.63032277	     -8.30744417	     36.47158340	      1.18041062	     62.74299314	    118.06570347	     91.09575893	     41.01810014	     -3.27227562	     60.13551516	    126.57762644	     99.62684580
      0.11666670	     -6.44112273	     -2.10502424	      4.67065266	     -0.18112277	      0.96568911	     -0.09457045	      8.37659923	      0.19689280	     -1.07114434	      4.13282595	      0.07213142	      7.48077030	     -2.00390061	     -7.33839749	      6.03370705	     -6.04038157	     -7.86424119	      5.17874154	      0.09038609	     13.13925296	      0.89718401	     -7.33839749	     13.95848535	     -0.61703791	     -8.10676284	     36.42537356	      0.55889547	     61.42622122	    117.75868008	     89.84850141	     41.44551915	     -3.00971368	     60.83953219	    127.08026402	     98.54185923
      0.13333330	     -6.75646022	     -2.11990993	      4.72923198	     -0.18107382	      0.96817729	     -0.09443736	      8.67273479	      0.25622996	     -0.99801860	      4.12743269	      0.07203729	      7.29531354	     -2.42524853	     -7.36925263	      6.51289176	     -6.08934203	     -8.03202841	      5.52730650	      0.09646970	     13.13174130	      1.11366804	     -7.36925263	     14.25285322	     -0.61491998	     -7.95377190	     35.98165798	      0.04143424	     60.34688532	    117.50727424	     86.88763802	     41.37043759	     -2.94067489	     61.33134268	    127.26629230	     95.83970382
      0.15000000	     -6.91130657	     -2.16904724	      4.81179629	     -0.18060232	      0.96784034	     -0.09455163	      8.79218167	      0.39815167	     -1.01728955	      4.06220754	      0.07089890	      7.19752220	     -2.64233726	     -7.38460992	      6.75737977	     -6.18585296	     -8.31425140	      5.76107034	      0.10054965	     13.15082930	      1.52075857	     -7.38460992	     14.31836542	     -0.64335590	     -7.81727951	     35.72965660	     -0.18260082	     60.81154881	    117.92253079	     85.97753314	     41.24196835	     -3.09308209	     61.73877848	    126.97253934	     95.03226889
      0.16666670	     -7.17789979	     -2.20306402	      4.87971783	     -0.18039885	      0.96728329	     -0.09465278	      9.00160460	      0.48937899	     -0.96484426	      3.94493551	      0.06885211	      7.09442204	     -2.92901508	     -7.44783478	      7.07449592	     -6.23629599	     -8.57061946	      5.87183962	      0.10248293	     13.10857997	      1.78387159	     -7.44783478	     14.58821111	     -0.63556939	     -7.85475578	     35.58571337	      0.09292871	     61.47232415	    118.26145880	     88.53542697	     41.08784918	     -2.83543535	     61.18325564	    126.43283790	     99.02040790
      0.18333330	     -7.33903485	     -2.24161388	      4.98137648	     -0.18627455	      0.96679351	     -0.09079516	      9.16485296	      0.61101222	     -1.01854805	      3.83494679	      0.06693245	      7.04389715	     -2.96231689	     -7.44805759	      7.35978326	     -6.29661910	     -8.57704886	      5.95359452	      0.10390983	     13.01182007	      1.83557053	     -7.44805759	     14.47533468	     -0.66814841	     -7.77649763	     35.77000753	      0.45245541	     61.66683115	    118.21779305	     88.54291809	     41.47980736	     -2.73813057	     61.06855008	    126.24366054	     98.99794701
      0.20000000	     -7.66845093	     -2.32593313	      5.08526120	     -0.18582664	      0.96262700	     -0.09075706	      9.60216951	      0.77717000	     -0.96388483	      3.81071257	      0.06650948	      6.91718423	     -3.24585707	     -7.45331257	      7.93750906	     -6.39030663	     -8.53621086	      6.17830606	      0.10783178	     13.15203514	      1.79517756	     -7.45331257	     14.72518803	     -0.65987548	     -7.85312846	     36.29782845	      0.71915472	     62.20036325	    118.23224001	     87.02595032	     41.89231044	     -2.53219960	     61.34630705	    126.00781097	     97.32271927
      0.21666670	     -7.87038366	     -2.36374222	      5.14355922	     -0.18570046	      0.96580119	     -0.09104950	      9.85494054	      0.87846858	     -0.97345602	      3.76525378	      0.06571608	      6.90758121	     -3.30369895	     -7.45801410	      8.32784915	     -6.43760025	     -8.58077705	      6.34035881	      0.11066014	     13.14384433	      1.77240147	     -7.45801410	     14.82157732	     -0.59503519	     -7.84040706	     36.44431018	      0.98894475	     62.49838496	    118.12191455	     85.66347631	     41.93135877	     -1.92589300	     61.82607919	    125.54333911	     95.86625822
      0.23333330	     -7.97312536	     -2.39196978	      5.22004373	     -0.18561655	      0.96858075	     -0.09089785	      9.99984442	      0.96225427	     -1.07295297	      3.74730418	      0.06540280	      6.94846784	     -3.23988727	     -7.46537163	      8.55525154	     -6.47744782	     -8.60378475	      6.41216483	      0.11191339	     13.08044954	      1.85145137	     -7.46537163	     14.70009198	     -0.54302545	     -7.89592876	     36.18425959	      0.85813071	     63.05314206	    118.19017013	     83.54768675	     41.75122650	     -1.64886016	     62.55360334	    125.17360099	     93.53095714
      0.25000000	     -7.99967569	     -2.39407660	      5.25625184	     -0.18520081	      0.96451986	     -0.09046515	     10.07050472	      1.03851077	     -0.89082789	      3.69925601	      0.06456420	      6.85550657	     -3.49036773	     -7.47431426	      8.66194396	     -6.50542199	     -8.73141810	      6.42964757	      0.11221852	     13.03012137	      2.01702961	     -7.47431426	     14.61460575	     -0.49752244	     -7.85235396	     36.39558696	      0.86150539	     63.35492886	    118.34043103	     88.24307289	     41.99255302	     -0.96940813	     62.61302745	    124.75171955	     97.42309771
      0.26666670	     -8.13878796	     -2.43412551	      5.29596883	     -0.18503164	      0.96112974	     -0.09086006	     10.27968640	      1.10448359	     -0.95687135	      3.73262941	      0.06514667	      6.98851198	     -3.40957422	     -7.47770749	      8.96381640	     -6.56205647	     -8.59700186	      6.55496643	      0.11440575	     13.05437810	      1.79671975	     -7.47770749	     14.59180385	     -0.38881615	     -8.14362672	     36.95710786	      0.93486513	     63.73810068	    118.73604531	     86.31772415	     42.65004065	     -0.35955459	     62.71895410	    124.75583174	     95.37153770
